HIERARCHY
ROOT Hips
{
    OFFSET 0.0 0.0 0.0
    CHANNELS 6 Xposition Yposition Zposition Zrotation Xrotation Yrotation
    JOINT LeftHipJoint
    {
        OFFSET 0.1 0.0 0.0
        CHANNELS 3 Zrotation Xrotation Yrotation
        JOINT LeftUpLeg
        {
            OFFSET 122.03969590009191 0.0 0.0
            CHANNELS 3 Zrotation Xrotation Yrotation
            JOINT LeftLeg
            {
                OFFSET 0.0 0.0 -410.05438075225743
                CHANNELS 3 Zrotation Xrotation Yrotation
                JOINT LeftFoot
                {
                    OFFSET 0.0 0.0 -397.6927562078932
                    CHANNELS 3 Zrotation Xrotation Yrotation
                    End Site
                    {
                        OFFSET 0.0 -0.1 0.0
                    }
                }
            }
        }
    }
    JOINT LowerBack
    {
        OFFSET 0.0 0.0 0.1
        CHANNELS 3 Zrotation Xrotation Yrotation
        JOINT Spine
        {
            OFFSET 0.0 0.0 221.26637857701112
            CHANNELS 3 Zrotation Xrotation Yrotation
            JOINT Spine1
            {
                OFFSET 0.0 0.0 255.2644462307818
                CHANNELS 3 Zrotation Xrotation Yrotation
                JOINT LeftShoulder
                {
                    OFFSET 0.1 0.0 0.0
                    CHANNELS 3 Zrotation Xrotation Yrotation
                    JOINT LeftArm
                    {
                        OFFSET 142.78209584459512 0.0 0.0
                        CHANNELS 3 Zrotation Xrotation Yrotation
                        JOINT LeftForeArm
                        {
                            OFFSET 261.53223457765125 0.0 0.0
                            CHANNELS 3 Zrotation Xrotation Yrotation
                            JOINT LeftHand
                            {
                                OFFSET 238.8250620722327 0.0 0.0
                                CHANNELS 3 Zrotation Xrotation Yrotation
                                End Site
                                {
                                    OFFSET 0.1 0.0 0.0
                                }
                            }
                        }
                    }
                }
                JOINT Neck
                {
                    OFFSET 0.0 0.0 0.1
                    CHANNELS 3 Zrotation Xrotation Yrotation
                    JOINT Neck1
                    {
                        OFFSET 0.0 0.0 109.29055950588518
                        CHANNELS 3 Zrotation Xrotation Yrotation
                        End Site
                        {
                            OFFSET 0.0 0.0 116.43127221102539
                        }
                    }
                }
                JOINT RightShoulder
                {
                    OFFSET -0.1 0.0 0.0
                    CHANNELS 3 Zrotation Xrotation Yrotation
                    JOINT RightArm
                    {
                        OFFSET -142.78209584459512 0.0 0.0
                        CHANNELS 3 Zrotation Xrotation Yrotation
                        JOINT RightForeArm
                        {
                            OFFSET -261.53223457765125 0.0 0.0
                            CHANNELS 3 Zrotation Xrotation Yrotation
                            JOINT RightHand
                            {
                                OFFSET -238.8250620722327 0.0 0.0
                                CHANNELS 3 Zrotation Xrotation Yrotation
                                End Site
                                {
                                    OFFSET -0.1 0.0 0.0
                                }
                            }
                        }
                    }
                }
            }
        }
    }
    JOINT RightHipJoint
    {
        OFFSET -0.1 0.0 0.0
        CHANNELS 3 Zrotation Xrotation Yrotation
        JOINT RightUpLeg
        {
            OFFSET -122.03969590009191 0.0 0.0
            CHANNELS 3 Zrotation Xrotation Yrotation
            JOINT RightLeg
            {
                OFFSET 0.0 0.0 -410.05438075225743
                CHANNELS 3 Zrotation Xrotation Yrotation
                JOINT RightFoot
                {
                    OFFSET 0.0 0.0 -397.6927562078932
                    CHANNELS 3 Zrotation Xrotation Yrotation
                    End Site
                    {
                        OFFSET 0.0 -0.1 0.0
                    }
                }
            }
        }
    }
}
MOTION
Frames: 4
Frame Time: 0.03333333333333333
0.0 0.0 821.7663820892717 24.385120053851505 4.7041149988735915 2.419132790068016 0.0 0.0 3.975693351829396e-16 0.4812356199001247 -17.96236100409204 -0.6493188244209221 -1.1906182912487295 28.38394379823308 0.30455148302296764 0.0 0.0 0.0 0.0 0.0 3.975693351829396e-16 0.002404282006546523 -0.09335914268549982 -1.8724897943105974 -5.135739279139044 -8.395334449025812e-16 -1.3714347655586397e-16 0.0 0.0 -9.93923337957349e-17 -13.818503482671959 7.649763163879433 76.36897779577484 -31.009617331159102 4.366021469860885e-15 -2.168721726789461e-14 0.0 0.0 3.975693351829396e-16 0.0 0.0 -9.93923337957349e-17 0.5098231497665987 -2.0455785338919314 -2.1950239973686045 0.0 0.0 -9.93923337957349e-17 -2.171991717755966 16.583099722874277 -70.19669166006405 65.80100306503664 -4.319048537841123e-15 -6.6761044209100194e-15 0.0 0.0 -1.5902773407317584e-15 0.0 0.0 3.975693351829396e-16 0.36326122440224673 -13.9298986727448 -0.4177687102686218 -0.8280404638148698 23.152018227846654 -0.34600052537580755 0.0 0.0 0.0
0.0 0.0 821.7663820892717 24.530475001229583 4.686065104964479 2.4576839593045636 -1.3793457181406746e-33 -7.951386703658792e-16 -1.987846675914698e-16 0.4900388423482034 -18.08737073705765 -0.5979127986666462 -1.1778769863116803 28.494485523443654 0.14070997546250913 1.1034765745125397e-32 -1.5902773407317584e-15 7.951386703658792e-16 -1.3793457181406746e-33 -7.951386703658792e-16 -1.987846675914698e-16 0.005964822426401602 -0.2291359317559678 -1.8640898445830085 -5.010723746273025 5.784050681591277e-16 4.232576638770995e-16 -3.1805546814635168e-15 5.517382872562698e-33 -1.987846675914698e-16 -14.08733277216612 8.624756289495773 76.71592978988816 -30.295170248903 5.791720105943995e-15 -2.1394406150249603e-14 -1.5902773407317584e-15 -7.951386703658792e-16 -7.951386703658792e-16 -3.1805546814635168e-15 5.517382872562698e-33 -1.987846675914698e-16 0.35566078947132734 -2.0186861614308014 -2.0789314920061193 -3.1805546814635168e-15 5.517382872562698e-33 -1.987846675914698e-16 -2.247542746336975 17.251432685260355 -70.2692496137066 64.61295987805492 -6.087891059673405e-15 -3.676577600764886e-15 0.0 0.0 2.3854160110976376e-15 -1.3793457181406746e-33 -7.951386703658792e-16 -1.987846675914698e-16 0.36834610785952177 -13.971578360272554 -0.48336555589485747 -0.8620208356414242 23.12142860388984 -0.27494871438443325 0.0 0.0 -3.975693351829396e-16
0.0 0.0 821.7663820892717 24.675777927723704 4.5599636928937 2.4847543878072953 0.0 0.0 9.93923337957349e-17 0.48441632157780046 -18.000807230420484 -0.49626762489589327 -1.1167679715302006 28.495173427771782 -0.02880404064976122 3.1805546814635164e-15 -1.9878466759146977e-16 5.517382872562698e-33 0.0 0.0 9.93923337957349e-17 0.007906235637125388 -0.30566368888838313 -1.8850612174984274 -5.020185311762711 -7.490801921211969e-16 6.665003950253855e-17 0.0 0.0 9.93923337957349e-17 -13.898069011400422 8.565797360573809 76.76367266248614 -29.83642295271482 1.8700254318161737e-15 2.2468195386767365e-15 0.0 0.0 9.93923337957349e-16 0.0 0.0 9.93923337957349e-17 0.33945266964675236 -1.9601120194291002 -1.9886829714219785 0.0 0.0 9.93923337957349e-17 -2.307733407312481 17.340906915829823 -70.18664220472779 63.96636892160446 -2.6977578792710526e-15 1.6846455136349749e-15 0.0 0.0 3.1805546814635168e-15 0.0 0.0 9.93923337957349e-17 0.3611382518877244 -13.793876663893968 -0.4768685100855205 -0.8547811533534992 23.12656855003816 -0.28020280022701044 0.0 0.0 3.975693351829396e-16
0.0 0.0 821.7663820892717 24.886884110601212 4.45679397192673 2.4414275821365856 0.0 0.0 -2.981770013872047e-16 0.4928357651457776 -17.839873248717133 -0.24417885953400703 -0.9926776986331828 28.26916192570368 -0.2336369059543484 0.0 0.0 -7.951386703658791e-16 0.0 0.0 -2.981770013872047e-16 0.008411696593059821 -0.3165478311038765 -1.838503294323534 -4.948304467987966 -1.8866939209656348e-15 -8.152208816809046e-17 0.0 0.0 9.93923337957349e-17 -13.72286902100957 8.467373188182682 76.87682413844863 -29.179444562367863 6.68325286259685e-15 -1.304981237077397e-14 0.0 0.0 -1.987846675914698e-15 0.0 0.0 9.93923337957349e-17 0.2557160499367301 -1.903641291522245 -1.8953947330046526 0.0 0.0 9.93923337957349e-17 -2.3742664289453344 17.22027049048648 -70.13320967286577 63.02294015210787 -3.324756226713854e-15 -5.4230718564339e-15 0.0 0.0 0.0 0.0 0.0 -2.981770013872047e-16 0.36823872130720053 -13.691846011714787 -0.3598052826444787 -0.8229788870376505 23.144280841029182 -0.22678605793197074 0.0 -1.987846675914698e-16 0.0
